
      <svg data-logo="logo" xmlns="http://www.w3.org/2000/svg" viewBox="0 0 321 43">
        <g id="logogram" transform="translate(0, 1) rotate(0) "><path d="M40.6035 40.89V0.889954H19.0079L0.603525 19.2943L0.603516 40.89H40.6035Z" fill="#2F2722"/><path fill-rule="evenodd" clip-rule="evenodd" d="M19.9139 27.4315L19.9139 39.5106L11.638 39.5106L11.638 24.0035L23.7171 11.9244L39.2242 11.9244L39.2242 20.2003L27.1451 20.2003L19.9139 27.4315Z" fill="#D62727"/><path fill-rule="evenodd" clip-rule="evenodd" d="M10.2587 23.2936L10.2587 39.5106L1.98283 39.5106L1.98283 19.8656L19.5792 2.26926L39.2242 2.26926L39.2242 10.5451L23.0072 10.5451L10.2587 23.2936Z" fill="#FFD43E"/><path fill-rule="evenodd" clip-rule="evenodd" d="M29.569 31.5695L29.569 39.5106L21.2932 39.5106L21.2932 28.1415L27.855 21.5796L39.2242 21.5796L39.2242 29.8555L31.283 29.8555L29.569 31.5695Z" fill="#EA721B"/></g>
        <g id="logotype" transform="translate(47, 2)"><path fill="#000000" d="M11.43 39.45L11.43 39.45Q10.90 39.45 10.38 39.35L10.38 39.35L10.38 34.87Q10.90 34.98 11.43 34.98L11.43 34.98Q12.13 34.98 12.58 34.68Q13.04 34.38 13.40 33.72Q13.77 33.05 14.19 31.96L14.19 31.96L6.35 13.45L12.30 13.45L16.92 25.80L21.30 13.45L26.65 13.45L19.58 32Q18.53 34.63 17.59 36.29Q16.64 37.95 15.22 38.70Q13.80 39.45 11.43 39.45ZM36.80 32.45L36.80 32.45Q34.21 32.45 32.06 31.44Q29.91 30.43 28.63 28.27Q27.35 26.12 27.35 22.90L27.35 22.90L27.35 22.20Q27.35 19.19 28.63 17.14Q29.91 15.09 32.06 14.04Q34.21 12.99 36.80 12.99L36.80 12.99Q39.43 12.99 41.56 14.04Q43.70 15.09 44.97 17.14Q46.25 19.19 46.25 22.20L46.25 22.20L46.25 22.90Q46.25 26.09 44.97 28.20Q43.70 30.32 41.56 31.39Q39.43 32.45 36.80 32.45ZM36.80 27.98L36.80 27.98Q38.06 27.98 38.94 27.36Q39.81 26.75 40.27 25.59Q40.72 24.44 40.72 22.90L40.72 22.90L40.72 22.20Q40.72 20.80 40.27 19.75Q39.81 18.70 38.94 18.09Q38.06 17.47 36.80 17.47L36.80 17.47Q35.54 17.47 34.67 18.09Q33.79 18.70 33.34 19.75Q32.88 20.80 32.88 22.20L32.88 22.20L32.88 22.90Q32.88 24.51 33.34 25.65Q33.79 26.79 34.67 27.38Q35.54 27.98 36.80 27.98ZM55.42 32.45L55.42 32.45Q52.24 32.45 50.56 30.63Q48.88 28.81 48.88 25.11L48.88 25.11L48.88 13.45L54.27 13.45L54.27 24.27Q54.27 26.09 55.02 27.03Q55.77 27.98 57.45 27.98L57.45 27.98Q58.64 27.98 59.43 27.48Q60.22 26.99 60.60 26.16Q60.99 25.31 60.99 24.27L60.99 24.27L60.99 13.45L66.38 13.45L66.38 32L61.41 32L61.41 29.48Q60.67 30.74 59.18 31.60Q57.70 32.45 55.42 32.45ZM75.27 32L69.88 32L69.88 13.45L74.85 13.45L74.85 15.97Q75.13 15.34 75.79 14.64Q76.46 13.94 77.40 13.47Q78.35 12.99 79.50 12.99L79.50 12.99Q80.10 12.99 80.45 13.06Q80.80 13.13 81.08 13.20L81.08 13.20L81.08 17.86Q80.90 17.75 80.27 17.61Q79.64 17.47 78.84 17.47L78.84 17.47Q77.58 17.47 76.79 17.96Q76.00 18.45 75.63 19.29Q75.27 20.13 75.27 21.18L75.27 21.18L75.27 32ZM91.72 32.45L91.72 32.45Q89.02 32.45 86.89 31.41Q84.75 30.36 83.53 28.22Q82.30 26.09 82.30 22.90L82.30 22.90L82.30 22.20Q82.30 19.26 83.58 17.20Q84.86 15.13 87.01 14.06Q89.16 12.99 91.72 12.99L91.72 12.99Q94.55 12.99 96.44 13.96Q98.33 14.92 99.35 16.53Q100.36 18.14 100.50 20.10L100.50 20.10L94.94 20.10Q94.69 18.84 93.94 18.16Q93.19 17.47 91.75 17.47L91.75 17.47Q90.63 17.47 89.74 18Q88.85 18.52 88.34 19.56Q87.83 20.59 87.83 22.20L87.83 22.20L87.83 22.90Q87.83 24.61 88.32 25.73Q88.81 26.86 89.69 27.40Q90.56 27.94 91.75 27.94L91.75 27.94Q92.98 27.94 93.83 27.29Q94.69 26.64 94.94 25.35L94.94 25.35L100.50 25.35Q100.36 27.52 99.24 29.13Q98.12 30.74 96.21 31.60Q94.31 32.45 91.72 32.45ZM108.90 32.45L108.90 32.45Q106.91 32.45 105.49 31.68Q104.07 30.91 103.34 29.57Q102.60 28.22 102.60 26.57L102.60 26.57Q102.60 23.81 104.30 22.34Q106.00 20.87 109.43 20.87L109.43 20.87L114.68 20.87L114.68 20.10Q114.68 18.42 113.89 17.79Q113.10 17.16 111.67 17.16L111.67 17.16Q110.37 17.16 109.74 17.56Q109.11 17.96 109.04 18.88L109.04 18.88L103.65 18.88Q103.76 17.20 104.72 15.86Q105.68 14.53 107.48 13.76Q109.29 12.99 111.84 12.99L111.84 12.99Q114.33 12.99 116.18 13.73Q118.04 14.46 119.07 16.09Q120.10 17.72 120.10 20.45L120.10 20.45L120.10 27.27Q120.10 28.75 120.17 29.85Q120.24 30.95 120.38 32L120.38 32L115.24 32Q115.20 31.41 115.15 30.95Q115.10 30.50 115.10 29.83L115.10 29.83Q114.26 30.95 112.77 31.70Q111.28 32.45 108.90 32.45ZM110.65 28.64L110.65 28.64Q111.81 28.64 112.72 28.22Q113.63 27.80 114.15 26.94Q114.68 26.09 114.68 25L114.68 25L114.68 24.23L110.48 24.23Q109.29 24.23 108.71 24.86Q108.13 25.49 108.13 26.29L108.13 26.29Q108.13 27.34 108.71 27.99Q109.29 28.64 110.65 28.64ZM128.81 32L123.43 32L123.43 13.45L128.40 13.45L128.40 15.97Q128.68 15.34 129.34 14.64Q130.01 13.94 130.95 13.47Q131.90 12.99 133.05 12.99L133.05 12.99Q133.65 12.99 134.00 13.06Q134.35 13.13 134.63 13.20L134.63 13.20L134.63 17.86Q134.45 17.75 133.82 17.61Q133.19 17.47 132.39 17.47L132.39 17.47Q131.13 17.47 130.34 17.96Q129.55 18.45 129.18 19.29Q128.81 20.13 128.81 21.18L128.81 21.18L128.81 32ZM145.48 32.45L145.48 32.45Q142.75 32.45 140.58 31.42Q138.41 30.39 137.13 28.25Q135.85 26.12 135.85 22.90L135.85 22.90L135.85 22.20Q135.85 19.12 137.08 17.09Q138.30 15.06 140.42 14.03Q142.54 12.99 145.13 12.99L145.13 12.99Q149.71 12.99 152.06 15.36Q154.40 17.72 154.40 22.20L154.40 22.20L154.40 24.16L141.38 24.16Q141.45 25.52 142.03 26.43Q142.61 27.34 143.52 27.75Q144.43 28.15 145.48 28.15L145.48 28.15Q147.02 28.15 147.91 27.68Q148.80 27.20 149.08 26.40L149.08 26.40L154.05 26.40Q153.49 29.45 151.29 30.95Q149.08 32.45 145.48 32.45ZM145.30 17.30L145.30 17.30Q144.32 17.30 143.45 17.61Q142.57 17.93 142.03 18.65Q141.49 19.36 141.42 20.59L141.42 20.59L149.12 20.59Q149.12 19.29 148.59 18.58Q148.06 17.86 147.21 17.58Q146.35 17.30 145.30 17.30ZM166.13 32.45L166.13 32.45Q163.40 32.45 161.23 31.42Q159.06 30.39 157.78 28.25Q156.50 26.12 156.50 22.90L156.50 22.90L156.50 22.20Q156.50 19.12 157.73 17.09Q158.95 15.06 161.07 14.03Q163.19 12.99 165.78 12.99L165.78 12.99Q170.36 12.99 172.71 15.36Q175.05 17.72 175.05 22.20L175.05 22.20L175.05 24.16L162.03 24.16Q162.10 25.52 162.68 26.43Q163.26 27.34 164.17 27.75Q165.08 28.15 166.13 28.15L166.13 28.15Q167.67 28.15 168.56 27.68Q169.45 27.20 169.73 26.40L169.73 26.40L174.70 26.40Q174.14 29.45 171.94 30.95Q169.73 32.45 166.13 32.45ZM165.95 17.30L165.95 17.30Q164.97 17.30 164.10 17.61Q163.22 17.93 162.68 18.65Q162.14 19.36 162.07 20.59L162.07 20.59L169.77 20.59Q169.77 19.29 169.24 18.58Q168.72 17.86 167.86 17.58Q167.00 17.30 165.95 17.30ZM183.24 32L177.85 32L177.85 13.45L182.82 13.45L182.82 15.97Q183.10 15.34 183.77 14.64Q184.43 13.94 185.38 13.47Q186.32 12.99 187.48 12.99L187.48 12.99Q188.07 12.99 188.42 13.06Q188.77 13.13 189.05 13.20L189.05 13.20L189.05 17.86Q188.88 17.75 188.25 17.61Q187.62 17.47 186.81 17.47L186.81 17.47Q185.55 17.47 184.76 17.96Q183.98 18.45 183.61 19.29Q183.24 20.13 183.24 21.18L183.24 21.18L183.24 32ZM202.25 32.45L202.25 32.45Q200.11 32.45 198.64 31.53Q197.17 30.60 196.47 29.48L196.47 29.48L196.47 32L191.50 32L191.50 7.50L196.89 7.50L196.89 15.79Q197.84 14.43 199.25 13.71Q200.67 12.99 202.25 12.99L202.25 12.99Q206.17 12.99 208.20 15.30Q210.23 17.61 210.23 22.20L210.23 22.20L210.23 22.90Q210.23 26.05 209.25 28.17Q208.27 30.29 206.48 31.37Q204.70 32.45 202.25 32.45ZM200.95 28.01L200.95 28.01Q202.56 28.01 203.63 26.70Q204.70 25.38 204.70 22.90L204.70 22.90L204.70 22.20Q204.70 19.78 203.66 18.61Q202.63 17.44 200.95 17.44L200.95 17.44Q199.83 17.44 198.90 17.91Q197.98 18.38 197.43 19.33Q196.89 20.27 196.89 21.67L196.89 21.67L196.89 23.42Q196.89 24.86 197.43 25.89Q197.98 26.93 198.90 27.47Q199.83 28.01 200.95 28.01ZM221.78 32.45L221.78 32.45Q219.19 32.45 217.03 31.44Q214.88 30.43 213.60 28.27Q212.33 26.12 212.33 22.90L212.33 22.90L212.33 22.20Q212.33 19.19 213.60 17.14Q214.88 15.09 217.03 14.04Q219.19 12.99 221.78 12.99L221.78 12.99Q224.40 12.99 226.54 14.04Q228.67 15.09 229.95 17.14Q231.23 19.19 231.23 22.20L231.23 22.20L231.23 22.90Q231.23 26.09 229.95 28.20Q228.67 30.32 226.54 31.39Q224.40 32.45 221.78 32.45ZM221.78 27.98L221.78 27.98Q223.04 27.98 223.91 27.36Q224.79 26.75 225.24 25.59Q225.70 24.44 225.70 22.90L225.70 22.90L225.70 22.20Q225.70 20.80 225.24 19.75Q224.79 18.70 223.91 18.09Q223.04 17.47 221.78 17.47L221.78 17.47Q220.52 17.47 219.64 18.09Q218.77 18.70 218.31 19.75Q217.86 20.80 217.86 22.20L217.86 22.20L217.86 22.90Q217.86 24.51 218.31 25.65Q218.77 26.79 219.64 27.38Q220.52 27.98 221.78 27.98ZM242.78 32.45L242.78 32.45Q240.19 32.45 238.03 31.44Q235.88 30.43 234.60 28.27Q233.33 26.12 233.33 22.90L233.33 22.90L233.33 22.20Q233.33 19.19 234.60 17.14Q235.88 15.09 238.03 14.04Q240.19 12.99 242.78 12.99L242.78 12.99Q245.40 12.99 247.54 14.04Q249.67 15.09 250.95 17.14Q252.23 19.19 252.23 22.20L252.23 22.20L252.23 22.90Q252.23 26.09 250.95 28.20Q249.67 30.32 247.54 31.39Q245.40 32.45 242.78 32.45ZM242.78 27.98L242.78 27.98Q244.04 27.98 244.91 27.36Q245.79 26.75 246.24 25.59Q246.70 24.44 246.70 22.90L246.70 22.90L246.70 22.20Q246.70 20.80 246.24 19.75Q245.79 18.70 244.91 18.09Q244.04 17.47 242.78 17.47L242.78 17.47Q241.52 17.47 240.64 18.09Q239.77 18.70 239.31 19.75Q238.86 20.80 238.86 22.20L238.86 22.20L238.86 22.90Q238.86 24.51 239.31 25.65Q239.77 26.79 240.64 27.38Q241.52 27.98 242.78 27.98ZM260.42 32L255.03 32L255.03 7.50L260.42 7.50L260.42 20.59L266.40 13.45L272.49 13.45L265.98 21.25L273.23 32L267.00 32L262.34 25L260.42 27.24L260.42 32Z"/></g>
        
      </svg>
    